<svg width="173" height="339" viewBox="0 0 173 339" fill="none" xmlns="http://www.w3.org/2000/svg">
<path d="M-92.2388 144.548C-94.9762 216.488 -15.1105 301.852 -12.4282 304.697C-12.3433 304.788 -12.3328 304.807 -12.2583 304.905C-9.95794 307.959 31.3557 361.54 71.7029 326.114C113.222 289.659 79.1947 271.125 63.6771 241.626C63.6771 241.626 53.0872 221.494 71.5819 202.973C71.9593 202.595 72.4038 202.337 72.9214 202.205C81.3939 200.049 159.12 178.9 169.371 126.399C180.215 70.8593 164.05 56.2838 111.305 16.0124C59.2891 -23.7018 -18.446 24.5923 -20.5868 25.9361C-20.6542 25.9784 -20.669 25.984 -20.7394 26.0211C-70.0872 52.0299 -89.4566 71.4315 -92.2388 144.548Z" fill="#FFC4C4" fill-opacity="0.85"/>
</svg>
