<svg width="355" height="117" viewBox="0 0 355 117" fill="none" xmlns="http://www.w3.org/2000/svg">
<path d="M280.972 48.7234C355.567 -25.9797 354.219 -197.916 354.179 -201.864C354.177 -201.988 354.177 -201.926 354.19 -202.049C354.597 -205.922 364.331 -305.995 285.329 -308.057C204.768 -310.16 222.835 -256.61 210.225 -209.657C210.225 -209.657 201.562 -177.403 163.094 -176.094C162.56 -176.076 162.092 -176.169 161.623 -176.425C152.441 -181.451 46.6263 -237.577 -17.0717 -191.004C-83.6993 -142.288 -80.8334 -110.671 -64.2606 -15.3083C-47.8451 79.1504 84.3014 104.262 86.8067 104.73C86.8849 104.745 86.8832 104.748 86.96 104.768C165.59 125.825 205.546 124.259 280.972 48.7234Z" fill="#F2E205"/>
</svg>
