<svg width="269" height="379" viewBox="0 0 269 379" fill="none" xmlns="http://www.w3.org/2000/svg">
<path d="M320.763 290.745C364.574 214.736 326.702 77.1548 325.647 73.3672C325.614 73.248 325.622 73.2722 325.603 73.15C324.992 69.3357 311.106 -12.5672 247.351 2.74473C182.078 18.4209 208.16 57.6112 208.136 98.1078C208.136 98.1078 208.12 125.847 177.583 135.233C177.072 135.39 176.584 135.418 176.065 135.292C166.772 133.042 70.2854 111.165 29.2777 162.119C-13.8276 215.679 -4.70549 240.499 29.188 313.655C62.6955 385.977 174.069 377.863 176.601 377.669C176.68 377.663 176.686 377.665 176.766 377.665C244.556 377.654 276.365 367.774 320.763 290.745Z" fill="#F2E205"/>
</svg>
