<svg width="161" height="247" viewBox="0 0 161 247" fill="none" xmlns="http://www.w3.org/2000/svg">
<path d="M-202.188 -110.269C-272.493 -31.5152 -261.541 140.078 -261.279 144.017C-261.271 144.141 -261.275 144.078 -261.281 144.202C-261.47 148.092 -265.599 248.552 -186.605 246.197C-106.051 243.796 -127.083 191.339 -117.115 143.755C-117.115 143.755 -110.268 111.067 -71.9331 107.612C-71.401 107.564 -70.928 107.63 -70.446 107.86C-60.9973 112.365 47.7877 162.491 108.784 112.432C172.586 60.0703 167.958 28.6631 146.084 -65.6253C124.416 -159.019 -8.9268 -176.709 -11.4543 -177.036C-11.5332 -177.047 -11.5316 -177.05 -11.6095 -177.066C-91.2927 -193.697 -131.099 -189.901 -202.188 -110.269Z" fill="#FFC4C4"/>
</svg>
