<svg width="216" height="282" viewBox="0 0 216 282" fill="none" xmlns="http://www.w3.org/2000/svg">
<path d="M141.885 213.724C216.48 139.02 215.133 -32.9162 215.092 -36.8643C215.09 -36.988 215.09 -36.9257 215.103 -37.0488C215.51 -40.9218 225.245 -140.994 146.242 -143.057C65.6806 -145.16 83.7485 -91.6099 71.1377 -44.6568C71.1377 -44.6568 62.4748 -12.4029 24.0071 -11.094C23.4732 -11.0759 23.0046 -11.1685 22.5361 -11.4249C13.3539 -16.4507 -92.4607 -72.577 -156.159 -26.0035C-222.786 22.712 -219.92 54.3287 -203.348 149.692C-186.932 244.151 -54.7855 269.263 -52.2802 269.73C-52.202 269.745 -52.2038 269.748 -52.1269 269.769C26.5027 290.825 66.4592 289.259 141.885 213.724Z" fill="#0F0140"/>
</svg>
