<svg width="349" height="93" viewBox="0 0 349 93" fill="none" xmlns="http://www.w3.org/2000/svg">
<path d="M216.971 -235.565C124.613 -222.806 33.8021 -101.261 31.4544 -98.1004C31.3806 -98.001 31.4027 -98.0326 31.3181 -97.9423C28.6708 -95.1141 -31.2257 -30.0136 23.2093 13.5523C78.8621 58.0928 94.7497 10.6959 128.733 -15.6546C128.733 -15.6546 152.033 -33.7221 179.809 -14.1732C180.246 -13.8657 180.566 -13.5023 180.785 -13.0151C184.817 -4.03583 229.331 91.466 298.893 92.6841C371.887 93.9622 386.765 70.1481 426.055 -5.91809C464.923 -81.1686 385.461 -169.369 383.752 -171.252C383.699 -171.311 383.699 -171.316 383.65 -171.379C339.494 -228.236 310.495 -248.485 216.971 -235.565Z" fill="#0F0140"/>
</svg>
