<svg width="321" height="379" viewBox="0 0 321 379" fill="none" xmlns="http://www.w3.org/2000/svg">
<path d="M372.763 290.745C416.574 214.736 378.702 77.1548 377.647 73.3672C377.614 73.248 377.622 73.2722 377.603 73.15C376.992 69.3357 363.106 -12.5672 299.351 2.74473C234.078 18.4209 260.16 57.6112 260.136 98.1078C260.136 98.1078 260.12 125.895 229.503 135.257C229.042 135.398 228.602 135.433 228.129 135.34C216.509 133.061 54.552 102.37 13.0002 154C-30.1051 207.56 47.2945 240.499 81.188 313.655C114.696 385.977 226.069 377.863 228.601 377.669C228.68 377.663 228.686 377.665 228.766 377.665C296.556 377.654 328.365 367.774 372.763 290.745Z" fill="#FFC4C4"/>
</svg>
